<svg width="400" height="320" xmlns="http://www.w3.org/2000/svg"><g transform="translate(-13 -21)" fill="none" fill-rule="evenodd"><path d="M52.44 142.56a1.5 1.5 0 1 1 2.12-2.12l80.007 80.006a1.5 1.5 0 0 1-2.121 2.12l-80.007-80.005z" fill="#444040" fill-rule="nonzero"/><path d="M332.935 260.935a1.5 1.5 0 1 1 2.122 2.122l-40 40a1.5 1.5 0 0 1-2.122 0l-38.939-38.94-38.94 38.94a1.5 1.5 0 0 1-2.108.012l-41.996-40.996a1.5 1.5 0 0 1 2.096-2.146l40.935 39.96 38.952-38.952a1.5 1.5 0 0 1 2.122 0l38.94 38.94 38.938-38.94zM324.086 228.385a2 2 0 0 1-3.849-1.088l6.094-21.543a2 2 0 0 1 2.416-1.395l19.818 5.017 5.565-19.672a2 2 0 0 1 2.391-1.4l22.592 5.43a2 2 0 0 1-.934 3.89l-20.724-4.982-5.57 19.694a2 2 0 0 1-2.416 1.395l-19.818-5.017-5.565 19.671z" fill="#D7D7D7" fill-rule="nonzero"/><path d="M152.756 43.233V18.5l3 .25v25.983a1.5 1.5 0 0 1-1.5 1.5H99.187v55.069a1.5 1.5 0 0 1-1.482 1.5l-58.684.707a1.5 1.5 0 1 1-.036-3l57.202-.69V44.733a1.5 1.5 0 0 1 1.5-1.5h55.069z" fill="#D0D0D0" fill-rule="nonzero"/><g transform="translate(173 101)" fill="#C5C6C6"><circle cx="3" cy="3" r="3"/><circle cx="13" cy="3" r="3"/><circle cx="23" cy="3" r="3"/><circle cx="33" cy="3" r="3"/><circle cx="3" cy="13" r="3"/><circle cx="13" cy="13" r="3"/><circle cx="23" cy="13" r="3"/><circle cx="33" cy="13" r="3"/><circle cx="3" cy="23" r="3"/><circle cx="13" cy="23" r="3"/><circle cx="23" cy="23" r="3"/><circle cx="33" cy="23" r="3"/><circle cx="3" cy="33" r="3"/><circle cx="13" cy="33" r="3"/><circle cx="23" cy="33" r="3"/><circle cx="33" cy="33" r="3"/></g><g transform="translate(173 141)" fill="#C5C6C6"><circle cx="3" cy="3" r="3"/><circle cx="13" cy="3" r="3"/><circle cx="23" cy="3" r="3"/><circle cx="33" cy="3" r="3"/><circle cx="3" cy="13" r="3"/><circle cx="13" cy="13" r="3"/><circle cx="23" cy="13" r="3"/><circle cx="33" cy="13" r="3"/><circle cx="3" cy="23" r="3"/><circle cx="13" cy="23" r="3"/><circle cx="23" cy="23" r="3"/><circle cx="33" cy="23" r="3"/><circle cx="3" cy="33" r="3"/><circle cx="13" cy="33" r="3"/><circle cx="23" cy="33" r="3"/><circle cx="33" cy="33" r="3"/></g><g transform="translate(213 141)" fill="#C5C6C6"><circle cx="3" cy="3" r="3"/><circle cx="13" cy="3" r="3"/><circle cx="23" cy="3" r="3"/><circle cx="33" cy="3" r="3"/><circle cx="3" cy="13" r="3"/><circle cx="13" cy="13" r="3"/><circle cx="23" cy="13" r="3"/><circle cx="33" cy="13" r="3"/><circle cx="3" cy="23" r="3"/><circle cx="13" cy="23" r="3"/><circle cx="23" cy="23" r="3"/><circle cx="33" cy="23" r="3"/><circle cx="3" cy="33" r="3"/><circle cx="13" cy="33" r="3"/><circle cx="23" cy="33" r="3"/><circle cx="33" cy="33" r="3"/></g><g transform="rotate(45 -122.747 634.7)" fill="#C5C6C6"><circle cx="3.707" cy="3.695" r="3"/><circle cx="3.707" cy="13.695" r="3"/><circle cx="13.707" cy="13.695" r="3"/><circle cx="3" cy="24" r="3"/><circle cx="13" cy="24" r="3"/><circle cx="23" cy="24" r="3"/><circle cx="3" cy="34" r="3"/><circle cx="13" cy="34" r="3"/><circle cx="23" cy="34" r="3"/><circle cx="33" cy="34" r="3"/><circle cx="3" cy="44" r="3"/><circle cx="13" cy="44" r="3"/><circle cx="23" cy="44" r="3"/><circle cx="33" cy="44" r="3"/><circle cx="3" cy="54" r="3"/><circle cx="13" cy="54" r="3"/><circle cx="23" cy="54" r="3"/><circle cx="33" cy="54" r="3"/></g><g transform="rotate(45 -299.798 162.364)" fill="#C5C6C6"><circle cx="3" cy="3" r="3"/><circle cx="13" cy="3" r="3"/><circle cx="23" cy="3" r="3"/><circle cx="33" cy="3" r="3"/><circle cx="3" cy="13" r="3"/><circle cx="13" cy="13" r="3"/><circle cx="23" cy="13" r="3"/><circle cx="33" cy="13" r="3"/><circle cx="3" cy="23" r="3"/><circle cx="13" cy="23" r="3"/><circle cx="23" cy="23" r="3"/><circle cx="33" cy="23" r="3"/><circle cx="13" cy="33" r="3"/><circle cx="23" cy="33" r="3"/><circle cx="33" cy="33" r="3"/></g><g transform="rotate(45 -358.097 165.5)" fill="#C5C6C6"><circle cx="3" cy="3" r="3"/><circle cx="13" cy="3" r="3"/><circle cx="13" cy="13" r="3"/></g><path d="M152.487 343.114v-19.292a1.5 1.5 0 0 1 3 0l.126 19.292h-3.126z" fill="#D0D0D0" fill-rule="nonzero"/><path d="M313 64l-17 34h34l-17-34zm2.683-1.342l17 34c.998 1.995-.453 4.342-2.683 4.342h-34c-2.23 0-3.68-2.347-2.683-4.342l17-34c1.105-2.21 4.26-2.21 5.366 0zM16 201.996l34 17v-34l-34 17zm-1.342-2.683l34-17c1.995-.998 4.342.453 4.342 2.683v34c0 2.23-2.347 3.68-4.342 2.683l-34-17c-2.21-1.105-2.21-4.26 0-5.366z" fill="#A2A4A4" fill-rule="nonzero"/><path d="M258.944 216.203l-.643 10.702a2 2 0 0 1-2.996 1.612L247 223.722a2 2 0 0 1-.102-3.4l8.947-5.908c1.376-.908 3.198.144 3.099 1.789z" fill="#7E8080" fill-rule="nonzero"/><circle fill="#444040" cx="133.5" cy="141.5" r="4.5"/><g fill="#313131" fill-rule="nonzero"><path d="M227.422 39.549a1 1 0 1 1 1.626-1.165l25.146 35.074a1 1 0 0 1-1.626 1.165l-25.146-35.074zM231.894 39.622a1 1 0 1 1 1.625-1.165l22.468 31.338a1 1 0 0 1-1.626 1.165l-22.467-31.338zM236.365 39.695a1 1 0 1 1 1.626-1.166l19.904 27.763a1 1 0 1 1-1.626 1.165l-19.904-27.762zM240.837 39.768a1 1 0 1 1 1.625-1.166l17.224 24.024a1 1 0 1 1-1.626 1.166l-17.223-24.024zM245.308 39.84a1 1 0 1 1 1.626-1.165l14.66 20.448a1 1 0 1 1-1.626 1.166l-14.66-20.448zM249.78 39.914a1 1 0 1 1 1.625-1.166l11.98 16.71a1 1 0 1 1-1.625 1.165l-11.98-16.71zM254.252 39.987a1 1 0 1 1 1.625-1.166l9.416 13.134a1 1 0 1 1-1.626 1.165l-9.415-13.133zM258.723 40.06a1 1 0 1 1 1.625-1.166l6.736 9.395a1 1 0 0 1-1.625 1.166l-6.736-9.395zM263.195 40.133a1 1 0 1 1 1.625-1.166l4.172 5.82a1 1 0 0 1-1.626 1.165l-4.171-5.82zM267.666 40.206a1 1 0 1 1 1.626-1.166l1.491 2.08a1 1 0 0 1-1.625 1.166l-1.492-2.08z"/></g><path d="M413.218 21L412 22.152l-37.44 37.444a1.5 1.5 0 1 1-2.12-2.122l36.454-36.454 4.324-.02zM410.44 339.471a1.5 1.5 0 0 1 2.12 2.121l-1.124 1.125-3.122-1.12 2.125-2.126z" fill="#313131" fill-rule="nonzero"/></g></svg>