<svg width="400px" height="320px" viewBox="0 0 400 320" xmlns="http://www.w3.org/2000/svg">

<defs>
<polygon class="path-1" points="6.54 2.44 11.34 12.03 1.75 12.03"></polygon>
</defs>
<g class="Page-1" stroke="none" stroke-width="1" fill="none" fill-rule="evenodd">
<g class="Artboard">
<g class="tile">
<g transform="translate(-41.00, -41.00)">
<g>
<g class="thin-circle" transform="translate(353.00, 193.00)" stroke="#67ACEE" stroke-width="3">
<circle class="Oval" cx="8.5" cy="8.5" r="7"></circle>
</g>
<g class="thin-circle" transform="translate(73.00, 73.00)" stroke="#67ACEE" stroke-width="3">
<circle class="Oval" cx="8.5" cy="8.5" r="7"></circle>
</g>
<g class="thick-circle" transform="translate(153.00, 313.00)" stroke="#67ACEE" stroke-width="5">
<circle class="Oval" cx="8.5" cy="8.5" r="6"></circle>
</g>
<g class="diagonal-line" transform="translate(81.00, 161.00)" stroke="#0549B0" stroke-linecap="round" stroke-linejoin="round" stroke-width="3">
<path d="M0.5,0.5 L80.50,80.50" class="Line"></path>
</g>
<g class="diagonal-line" transform="translate(441.50, 40.50) rotate(-270.00) translate(-441.50, -40.50) translate(401.00, 0.00)" stroke="#0549B0" stroke-linecap="round" stroke-linejoin="round" stroke-width="3">
<path d="M0.5,0.5 L80.50,80.50" class="Line"></path>
</g>
<g class="zigzag" transform="translate(200.00, 281.00)" stroke="#ADF1DC" stroke-linecap="round" stroke-linejoin="round" stroke-width="3">
<polyline class="Path-2" transform="translate(80.99, 20.49) rotate(-180.00) translate(-80.99, -20.49) " points="0 40 40 5.68e-14 80 40 120 5.68e-14 161.99 40.99"></polyline>
</g>
<g class="little-zigzag" transform="translate(374.14, 225.17) rotate(-210.00) translate(-374.14, -225.17) translate(341.64, 217.17)" stroke="#9BDBE4" stroke-linecap="round" stroke-linejoin="round">
<g class="zigzag">
<polyline class="Path-2" stroke-width="4" transform="translate(32.49, 7.99) rotate(-180.00) translate(-32.49, -7.99) " points="0 15.60 16.04 5.68e-14 32.09 15.60 48.14 5.68e-14 64.99 15.99"></polyline>
</g>
</g>
<g class="zigzag" transform="translate(138.77, 79.22) rotate(-45.00) translate(-138.77, -79.22) translate(57.77, 58.72)" stroke="#ADF1DC" stroke-linecap="round" stroke-linejoin="round" stroke-width="3">
<polyline class="Path-2" transform="translate(80.99, 20.49) rotate(-180.00) translate(-80.99, -20.49) " points="0 40 40 5.68e-14 80 40 120 5.68e-14 161.99 40.99"></polyline>
</g>
<g class="zigzag" transform="translate(138.77, 79.22) rotate(-45.00) translate(-138.77, -79.22) translate(57.77, 58.72)" stroke="#ADF1DC" stroke-linecap="round" stroke-linejoin="round" stroke-width="3">
<polyline class="Path-2" transform="translate(80.99, 20.49) rotate(-180.00) translate(-80.99, -20.49) " points="0 40 40 5.68e-14 80 40 120 5.68e-14 161.99 40.99"></polyline>
</g>
<g class="dot-square" transform="translate(201.00, 121.00)" fill="#87C8E8">
<circle class="Oval-2" cx="3" cy="3" r="3"></circle>
<circle class="Oval-2" cx="13" cy="3" r="3"></circle>
<circle class="Oval-2" cx="23" cy="3" r="3"></circle>
<circle class="Oval-2" cx="33" cy="3" r="3"></circle>
<circle class="Oval-2" cx="3" cy="13" r="3"></circle>
<circle class="Oval-2" cx="13" cy="13" r="3"></circle>
<circle class="Oval-2" cx="23" cy="13" r="3"></circle>
<circle class="Oval-2" cx="33" cy="13" r="3"></circle>
<circle class="Oval-2" cx="3" cy="23" r="3"></circle>
<circle class="Oval-2" cx="13" cy="23" r="3"></circle>
<circle class="Oval-2" cx="23" cy="23" r="3"></circle>
<circle class="Oval-2" cx="33" cy="23" r="3"></circle>
<circle class="Oval-2" cx="3" cy="33" r="3"></circle>
<circle class="Oval-2" cx="13" cy="33" r="3"></circle>
<circle class="Oval-2" cx="23" cy="33" r="3"></circle>
<circle class="Oval-2" cx="33" cy="33" r="3"></circle>
</g>
<g class="dot-square" transform="translate(201.00, 161.00)" fill="#87C8E8">
<circle class="Oval-2" cx="3" cy="3" r="3"></circle>
<circle class="Oval-2" cx="13" cy="3" r="3"></circle>
<circle class="Oval-2" cx="23" cy="3" r="3"></circle>
<circle class="Oval-2" cx="33" cy="3" r="3"></circle>
<circle class="Oval-2" cx="3" cy="13" r="3"></circle>
<circle class="Oval-2" cx="13" cy="13" r="3"></circle>
<circle class="Oval-2" cx="23" cy="13" r="3"></circle>
<circle class="Oval-2" cx="33" cy="13" r="3"></circle>
<circle class="Oval-2" cx="3" cy="23" r="3"></circle>
<circle class="Oval-2" cx="13" cy="23" r="3"></circle>
<circle class="Oval-2" cx="23" cy="23" r="3"></circle>
<circle class="Oval-2" cx="33" cy="23" r="3"></circle>
<circle class="Oval-2" cx="3" cy="33" r="3"></circle>
<circle class="Oval-2" cx="13" cy="33" r="3"></circle>
<circle class="Oval-2" cx="23" cy="33" r="3"></circle>
<circle class="Oval-2" cx="33" cy="33" r="3"></circle>
</g>
<g class="dot-square" transform="translate(241.00, 161.00)" fill="#87C8E8">
<circle class="Oval-2" cx="3" cy="3" r="3"></circle>
<circle class="Oval-2" cx="13" cy="3" r="3"></circle>
<circle class="Oval-2" cx="23" cy="3" r="3"></circle>
<circle class="Oval-2" cx="33" cy="3" r="3"></circle>
<circle class="Oval-2" cx="3" cy="13" r="3"></circle>
<circle class="Oval-2" cx="13" cy="13" r="3"></circle>
<circle class="Oval-2" cx="23" cy="13" r="3"></circle>
<circle class="Oval-2" cx="33" cy="13" r="3"></circle>
<circle class="Oval-2" cx="3" cy="23" r="3"></circle>
<circle class="Oval-2" cx="13" cy="23" r="3"></circle>
<circle class="Oval-2" cx="23" cy="23" r="3"></circle>
<circle class="Oval-2" cx="33" cy="23" r="3"></circle>
<circle class="Oval-2" cx="3" cy="33" r="3"></circle>
<circle class="Oval-2" cx="13" cy="33" r="3"></circle>
<circle class="Oval-2" cx="23" cy="33" r="3"></circle>
<circle class="Oval-2" cx="33" cy="33" r="3"></circle>
</g>
<g class="dot-square" transform="translate(455.00, 305.00) rotate(-315.00) translate(-455.00, -305.00) translate(437.00, 287.00)" fill="#87C8E8">
<circle class="Oval-2" cx="3" cy="3" r="3"></circle>
<circle class="Oval-2" cx="13" cy="3" r="3"></circle>
<circle class="Oval-2" cx="23" cy="3" r="3"></circle>
<circle class="Oval-2" cx="33" cy="3" r="3"></circle>
<circle class="Oval-2" cx="3" cy="13" r="3"></circle>
<circle class="Oval-2" cx="13" cy="13" r="3"></circle>
<circle class="Oval-2" cx="23" cy="13" r="3"></circle>
<circle class="Oval-2" cx="33" cy="13" r="3"></circle>
<circle class="Oval-2" cx="3" cy="23" r="3"></circle>
<circle class="Oval-2" cx="13" cy="23" r="3"></circle>
<circle class="Oval-2" cx="23" cy="23" r="3"></circle>
<circle class="Oval-2" cx="33" cy="23" r="3"></circle>
<circle class="Oval-2" cx="3" cy="33" r="3"></circle>
<circle class="Oval-2" cx="13" cy="33" r="3"></circle>
<circle class="Oval-2" cx="23" cy="33" r="3"></circle>
<circle class="Oval-2" cx="33" cy="33" r="3"></circle>
</g>
<g class="dot-square" transform="translate(426.00, 333.00) rotate(-315.00) translate(-426.00, -333.00) translate(408.00, 315.00)" fill="#87C8E8">
<circle class="Oval-2" cx="3" cy="3" r="3"></circle>
<circle class="Oval-2" cx="13" cy="3" r="3"></circle>
<circle class="Oval-2" cx="23" cy="3" r="3"></circle>
<circle class="Oval-2" cx="33" cy="3" r="3"></circle>
<circle class="Oval-2" cx="3" cy="13" r="3"></circle>
<circle class="Oval-2" cx="13" cy="13" r="3"></circle>
<circle class="Oval-2" cx="23" cy="13" r="3"></circle>
<circle class="Oval-2" cx="33" cy="13" r="3"></circle>
<circle class="Oval-2" cx="3" cy="23" r="3"></circle>
<circle class="Oval-2" cx="13" cy="23" r="3"></circle>
<circle class="Oval-2" cx="23" cy="23" r="3"></circle>
<circle class="Oval-2" cx="33" cy="23" r="3"></circle>
<circle class="Oval-2" cx="3" cy="33" r="3"></circle>
<circle class="Oval-2" cx="13" cy="33" r="3"></circle>
<circle class="Oval-2" cx="23" cy="33" r="3"></circle>
<circle class="Oval-2" cx="33" cy="33" r="3"></circle>
</g>
<g class="dot-square" transform="translate(55.00, 305.00) rotate(-315.00) translate(-55.00, -305.00) translate(37.00, 287.00)" fill="#87C8E8">
<circle class="Oval-2" cx="3" cy="3" r="3"></circle>
<circle class="Oval-2" cx="13" cy="3" r="3"></circle>
<circle class="Oval-2" cx="23" cy="3" r="3"></circle>
<circle class="Oval-2" cx="33" cy="3" r="3"></circle>
<circle class="Oval-2" cx="3" cy="13" r="3"></circle>
<circle class="Oval-2" cx="13" cy="13" r="3"></circle>
<circle class="Oval-2" cx="23" cy="13" r="3"></circle>
<circle class="Oval-2" cx="33" cy="13" r="3"></circle>
<circle class="Oval-2" cx="3" cy="23" r="3"></circle>
<circle class="Oval-2" cx="13" cy="23" r="3"></circle>
<circle class="Oval-2" cx="23" cy="23" r="3"></circle>
<circle class="Oval-2" cx="33" cy="23" r="3"></circle>
<circle class="Oval-2" cx="3" cy="33" r="3"></circle>
<circle class="Oval-2" cx="13" cy="33" r="3"></circle>
<circle class="Oval-2" cx="23" cy="33" r="3"></circle>
<circle class="Oval-2" cx="33" cy="33" r="3"></circle>
</g>
<g class="dot-square" transform="translate(26.00, 333.00) rotate(-315.00) translate(-26.00, -333.00) translate(8.00, 315.00)" fill="#87C8E8">
<circle class="Oval-2" cx="3" cy="3" r="3"></circle>
<circle class="Oval-2" cx="13" cy="3" r="3"></circle>
<circle class="Oval-2" cx="23" cy="3" r="3"></circle>
<circle class="Oval-2" cx="33" cy="3" r="3"></circle>
<circle class="Oval-2" cx="3" cy="13" r="3"></circle>
<circle class="Oval-2" cx="13" cy="13" r="3"></circle>
<circle class="Oval-2" cx="23" cy="13" r="3"></circle>
<circle class="Oval-2" cx="33" cy="13" r="3"></circle>
<circle class="Oval-2" cx="3" cy="23" r="3"></circle>
<circle class="Oval-2" cx="13" cy="23" r="3"></circle>
<circle class="Oval-2" cx="23" cy="23" r="3"></circle>
<circle class="Oval-2" cx="33" cy="23" r="3"></circle>
<circle class="Oval-2" cx="3" cy="33" r="3"></circle>
<circle class="Oval-2" cx="13" cy="33" r="3"></circle>
<circle class="Oval-2" cx="23" cy="33" r="3"></circle>
<circle class="Oval-2" cx="33" cy="33" r="3"></circle>
</g>
<g class="zigzag" transform="translate(138.77, 414.77) rotate(-45.00) translate(-138.77, -414.77) translate(57.77, 394.27)" stroke="#ADF1DC" stroke-linecap="round" stroke-linejoin="round" stroke-width="3">
<polyline class="Path-2" transform="translate(80.99, 20.49) rotate(-180.00) translate(-80.99, -20.49) " points="0 40 40 5.68e-14 80 40 120 5.68e-14 161.99 40.99"></polyline>
</g>
<g class="triangle" transform="translate(324.00, 84.00)" stroke="#9BDBE4" stroke-linecap="round" stroke-linejoin="round" stroke-width="3">
<path d="M17,-3.35 L36.42,35.5 L-2.42,35.5 L17,-3.35 Z" class="Triangle"></path>
</g>
<g class="triangle" transform="translate(61.00, 222.00) rotate(-90.00) translate(-61.00, -222.00) translate(44.00, 205.00)" stroke="#9BDBE4" stroke-linecap="round" stroke-linejoin="round" stroke-width="3">
<path d="M17,-3.35 L36.42,35.5 L-2.42,35.5 L17,-3.35 Z" class="Triangle"></path>
</g>
<g class="little-fat-triangle" transform="translate(276.00, 233.00)" stroke-linecap="round" stroke-linejoin="round">
<g class="Triangle" transform="translate(6.54, 7.23) rotate(-330.00) translate(-6.54, -7.23) ">
<use fill="#0549B0" fill-rule="evenodd"></use>
<path stroke="#0549B0" stroke-width="2" d="M6.54,0.20 L12.96,13.03 L0.13,13.03 L6.54,0.20 Z"></path>
<use stroke="#0549B0" stroke-width="1"></use>
</g>
</g>
<g class="little-filled-circle" transform="translate(157.00, 157.00)" fill="#28508F">
<circle class="Oval" cx="4.5" cy="4.5" r="4.5"></circle>
</g>
<g class="lined-triangle" transform="translate(273.06, 68.85) rotate(-62.50) translate(-273.06, -68.85) translate(254.06, 49.35)" stroke="#0549B0" stroke-linecap="round" stroke-linejoin="round" stroke-width="2">
<path d="M20,0 L0.5,38.5" class="Line"></path>
<path d="M22,4 L4.57,38.39" class="Line"></path>
<path d="M24,8 L8.56,38.47" class="Line"></path>
<path d="M26,12 L12.64,38.37" class="Line"></path>
<path d="M28,16 L16.63,38.44" class="Line"></path>
<path d="M30,20 L20.71,38.34" class="Line"></path>
<path d="M32,24 L24.69,38.41" class="Line"></path>
<path d="M34,28 L28.77,38.31" class="Line"></path>
<path d="M36,32 L32.76,38.38" class="Line"></path>
<path d="M38,36 L36.84,38.28" class="Line"></path>
</g>
<g class="diagonal-line" transform="translate(81.50, 401.50) rotate(-270.00) translate(-81.50, -401.50) translate(41.00, 361.00)" stroke="#0549B0" stroke-linecap="round" stroke-linejoin="round" stroke-width="3">
<path d="M0.5,0.5 L80.50,80.50" class="Line"></path>
</g>
</g>
</g>
</g>
</g>
</g>
</svg>
