<?xml version="1.0" encoding="UTF-8"?>
<svg width="400px" height="320px" viewBox="0 0 400 320" version="1.1" xmlns="http://www.w3.org/2000/svg" xmlns:xlink="http://www.w3.org/1999/xlink">
    <!-- Generator: Sketch 48.2 (47327) - http://www.bohemiancoding.com/sketch -->
    <title>tile-008</title>
    <desc>Created with Sketch.</desc>
    <defs></defs>
    <g id="008" stroke="none" stroke-width="1" fill="none" fill-rule="evenodd">
        <g id="tile">
            <g transform="translate(-13.000000, -21.000000)">
                <path d="M52.4393398,142.56066 C51.8535534,141.974874 51.8535534,141.025126 52.4393398,140.43934 C53.0251263,139.853553 53.9748737,139.853553 54.5606602,140.43934 L134.56691,220.44559 C135.152696,221.031376 135.152696,221.981123 134.56691,222.56691 C133.981123,223.152696 133.031376,223.152696 132.44559,222.56691 L52.4393398,142.56066 Z" id="diagonal-line" fill="#822E40" fill-rule="nonzero"></path>
                <path d="M173.06066,302.06066 C172.474874,302.646447 171.525126,302.646447 170.93934,302.06066 C170.353553,301.474874 170.353553,300.525126 170.93934,299.93934 L210.93934,259.93934 C211.525126,259.353553 212.474874,259.353553 213.06066,259.93934 L252,298.87868 L290.93934,259.93934 C291.520142,259.358538 292.460046,259.352876 293.047804,259.926638 L335.043898,300.922731 C335.636699,301.501417 335.648142,302.451096 335.069456,303.043898 C334.49077,303.636699 333.541092,303.648142 332.94829,303.069456 L292.012703,263.108617 L253.06066,302.06066 C252.474874,302.646447 251.525126,302.646447 250.93934,302.06066 L212,263.12132 L173.06066,302.06066 Z" id="zigzag" fill="#EFCCE5" fill-rule="nonzero" transform="translate(252.998047, 281.498047) rotate(-180.000000) translate(-252.998047, -281.498047) "></path>
                <path d="M315.396561,214.04479 C314.604742,214.814918 313.338535,214.797335 312.568406,214.005517 C311.798278,213.213699 311.81586,211.947491 312.607679,211.177363 L328.657061,195.567607 C329.433375,194.812558 330.66963,194.812558 331.445943,195.567607 L346.100885,209.821118 L360.755827,195.567607 C361.525445,194.819069 362.748771,194.811705 363.527346,195.550922 L380.377631,211.549397 C381.178663,212.309937 381.21149,213.575841 380.450951,214.376874 C379.690411,215.177907 378.424507,215.210733 377.623474,214.450194 L362.166966,199.775037 L347.495326,214.04479 C346.719012,214.799838 345.482758,214.799838 344.706444,214.04479 L330.051502,199.791278 L315.396561,214.04479 Z" id="little-zigzag" fill="#EFCCE5" fill-rule="nonzero" transform="translate(346.501337, 205.000560) rotate(-30.000000) translate(-346.501337, -205.000560) "></path>
                <path d="M50.9382667,48.6536575 L33.449414,66.1425101 L31.5048704,63.8444131 L49.8776065,45.471677 C50.4633929,44.8858905 51.4131404,44.8858905 51.9989269,45.471677 L90.9382667,84.4110168 L129.877607,45.471677 C130.458408,44.8908751 131.398313,44.8852127 131.986071,45.4589746 L173.982164,86.4550684 C174.574966,87.0337545 174.586409,87.983433 174.007723,88.5762347 C173.429037,89.1690365 172.479358,89.1804795 171.886557,88.6017934 L130.95097,48.6409542 L91.9989269,87.5929973 C91.4131404,88.1787837 90.4633929,88.1787837 89.8776065,87.5929973 L50.9382667,48.6536575 Z" id="zigzag" fill="#E2D8FF" fill-rule="nonzero" transform="translate(102.969616, 67.030384) rotate(-225.000000) translate(-102.969616, -67.030384) "></path>
                <g id="dot-square" transform="translate(173.000000, 101.000000)" fill="#F2B5CE">
                    <circle id="Oval-2" cx="3" cy="3" r="3"></circle>
                    <circle id="Oval-2" cx="13" cy="3" r="3"></circle>
                    <circle id="Oval-2" cx="23" cy="3" r="3"></circle>
                    <circle id="Oval-2" cx="33" cy="3" r="3"></circle>
                    <circle id="Oval-2" cx="3" cy="13" r="3"></circle>
                    <circle id="Oval-2" cx="13" cy="13" r="3"></circle>
                    <circle id="Oval-2" cx="23" cy="13" r="3"></circle>
                    <circle id="Oval-2" cx="33" cy="13" r="3"></circle>
                    <circle id="Oval-2" cx="3" cy="23" r="3"></circle>
                    <circle id="Oval-2" cx="13" cy="23" r="3"></circle>
                    <circle id="Oval-2" cx="23" cy="23" r="3"></circle>
                    <circle id="Oval-2" cx="33" cy="23" r="3"></circle>
                    <circle id="Oval-2" cx="3" cy="33" r="3"></circle>
                    <circle id="Oval-2" cx="13" cy="33" r="3"></circle>
                    <circle id="Oval-2" cx="23" cy="33" r="3"></circle>
                    <circle id="Oval-2" cx="33" cy="33" r="3"></circle>
                </g>
                <g id="dot-square" transform="translate(173.000000, 141.000000)" fill="#F2B5CE">
                    <circle id="Oval-2" cx="3" cy="3" r="3"></circle>
                    <circle id="Oval-2" cx="13" cy="3" r="3"></circle>
                    <circle id="Oval-2" cx="23" cy="3" r="3"></circle>
                    <circle id="Oval-2" cx="33" cy="3" r="3"></circle>
                    <circle id="Oval-2" cx="3" cy="13" r="3"></circle>
                    <circle id="Oval-2" cx="13" cy="13" r="3"></circle>
                    <circle id="Oval-2" cx="23" cy="13" r="3"></circle>
                    <circle id="Oval-2" cx="33" cy="13" r="3"></circle>
                    <circle id="Oval-2" cx="3" cy="23" r="3"></circle>
                    <circle id="Oval-2" cx="13" cy="23" r="3"></circle>
                    <circle id="Oval-2" cx="23" cy="23" r="3"></circle>
                    <circle id="Oval-2" cx="33" cy="23" r="3"></circle>
                    <circle id="Oval-2" cx="3" cy="33" r="3"></circle>
                    <circle id="Oval-2" cx="13" cy="33" r="3"></circle>
                    <circle id="Oval-2" cx="23" cy="33" r="3"></circle>
                    <circle id="Oval-2" cx="33" cy="33" r="3"></circle>
                </g>
                <g id="dot-square" transform="translate(213.000000, 141.000000)" fill="#F2B5CE">
                    <circle id="Oval-2" cx="3" cy="3" r="3"></circle>
                    <circle id="Oval-2" cx="13" cy="3" r="3"></circle>
                    <circle id="Oval-2" cx="23" cy="3" r="3"></circle>
                    <circle id="Oval-2" cx="33" cy="3" r="3"></circle>
                    <circle id="Oval-2" cx="3" cy="13" r="3"></circle>
                    <circle id="Oval-2" cx="13" cy="13" r="3"></circle>
                    <circle id="Oval-2" cx="23" cy="13" r="3"></circle>
                    <circle id="Oval-2" cx="33" cy="13" r="3"></circle>
                    <circle id="Oval-2" cx="3" cy="23" r="3"></circle>
                    <circle id="Oval-2" cx="13" cy="23" r="3"></circle>
                    <circle id="Oval-2" cx="23" cy="23" r="3"></circle>
                    <circle id="Oval-2" cx="33" cy="23" r="3"></circle>
                    <circle id="Oval-2" cx="3" cy="33" r="3"></circle>
                    <circle id="Oval-2" cx="13" cy="33" r="3"></circle>
                    <circle id="Oval-2" cx="23" cy="33" r="3"></circle>
                    <circle id="Oval-2" cx="33" cy="33" r="3"></circle>
                </g>
                <g id="dot-square" transform="translate(405.424621, 305.575379) rotate(-315.000000) translate(-405.424621, -305.575379) translate(387.424621, 277.075379)" fill="#F2B5CE">
                    <circle id="Oval-2" cx="3.70710678" cy="3.69491347" r="3"></circle>
                    <circle id="Oval-2" cx="3.70710678" cy="13.6949135" r="3"></circle>
                    <circle id="Oval-2" cx="13.7071068" cy="13.6949135" r="3"></circle>
                    <circle id="Oval-2" cx="3" cy="24" r="3"></circle>
                    <circle id="Oval-2" cx="13" cy="24" r="3"></circle>
                    <circle id="Oval-2" cx="23" cy="24" r="3"></circle>
                    <circle id="Oval-2" cx="3" cy="34" r="3"></circle>
                    <circle id="Oval-2" cx="13" cy="34" r="3"></circle>
                    <circle id="Oval-2" cx="23" cy="34" r="3"></circle>
                    <circle id="Oval-2" cx="33" cy="34" r="3"></circle>
                    <circle id="Oval-2" cx="3" cy="44" r="3"></circle>
                    <circle id="Oval-2" cx="13" cy="44" r="3"></circle>
                    <circle id="Oval-2" cx="23" cy="44" r="3"></circle>
                    <circle id="Oval-2" cx="33" cy="44" r="3"></circle>
                    <circle id="Oval-2" cx="3" cy="54" r="3"></circle>
                    <circle id="Oval-2" cx="13" cy="54" r="3"></circle>
                    <circle id="Oval-2" cx="23" cy="54" r="3"></circle>
                    <circle id="Oval-2" cx="33" cy="54" r="3"></circle>
                </g>
                <g id="dot-square" transform="translate(27.000000, 285.000000) rotate(-315.000000) translate(-27.000000, -285.000000) translate(9.000000, 267.000000)" fill="#F2B5CE">
                    <circle id="Oval-2" cx="3" cy="3" r="3"></circle>
                    <circle id="Oval-2" cx="13" cy="3" r="3"></circle>
                    <circle id="Oval-2" cx="23" cy="3" r="3"></circle>
                    <circle id="Oval-2" cx="33" cy="3" r="3"></circle>
                    <circle id="Oval-2" cx="3" cy="13" r="3"></circle>
                    <circle id="Oval-2" cx="13" cy="13" r="3"></circle>
                    <circle id="Oval-2" cx="23" cy="13" r="3"></circle>
                    <circle id="Oval-2" cx="33" cy="13" r="3"></circle>
                    <circle id="Oval-2" cx="3" cy="23" r="3"></circle>
                    <circle id="Oval-2" cx="13" cy="23" r="3"></circle>
                    <circle id="Oval-2" cx="23" cy="23" r="3"></circle>
                    <circle id="Oval-2" cx="33" cy="23" r="3"></circle>
                    <circle id="Oval-2" cx="13" cy="33" r="3"></circle>
                    <circle id="Oval-2" cx="23" cy="33" r="3"></circle>
                    <circle id="Oval-2" cx="33" cy="33" r="3"></circle>
                </g>
                <g id="dot-square" transform="translate(12.142136, 313.000000) rotate(-315.000000) translate(-12.142136, -313.000000) translate(4.142136, 305.000000)" fill="#F2B5CE">
                    <circle id="Oval-2" cx="3" cy="3" r="3"></circle>
                    <circle id="Oval-2" cx="13" cy="3" r="3"></circle>
                    <circle id="Oval-2" cx="13" cy="13" r="3"></circle>
                </g>
                <path d="M162.119891,327.253166 L148.477756,340.895302 C147.891969,341.481088 146.942222,341.481088 146.356435,340.895302 C145.770649,340.309515 145.770649,339.359768 146.356435,338.773981 L159.909619,325.042893 L162.119891,327.253166 Z" id="zigzag-end" fill="#E2D8FF" fill-rule="nonzero" transform="translate(154.018493, 333.188767) rotate(-225.000000) translate(-154.018493, -333.188767) "></path>
                <path d="M313,64 L296,98 L330,98 L313,64 Z M315.683282,62.6583592 L332.683282,96.6583592 C333.680633,98.6530625 332.230146,101 330,101 L296,101 C293.769854,101 292.319367,98.6530625 293.316718,96.6583592 L310.316718,62.6583592 C311.422291,60.4472136 314.577709,60.4472136 315.683282,62.6583592 Z" id="triangle" fill="#F8859D" fill-rule="nonzero"></path>
                <path d="M33,184.996129 L16,218.996129 L50,218.996129 L33,184.996129 Z M35.6832816,183.654489 L52.6832816,217.654489 C53.6806332,219.649192 52.2301461,221.996129 50,221.996129 L16,221.996129 C13.7698539,221.996129 12.3193668,219.649192 13.3167184,217.654489 L30.3167184,183.654489 C31.4222912,181.443343 34.5777088,181.443343 35.6832816,183.654489 Z" id="triangle" fill="#F8859D" fill-rule="nonzero" transform="translate(33.000000, 201.996129) rotate(-90.000000) translate(-33.000000, -201.996129) "></path>
                <path d="M256.338773,214.546036 L261.133646,224.135782 C261.798547,225.465584 260.831555,227.030209 259.344791,227.030209 L249.755045,227.030209 C248.268281,227.030209 247.30129,225.465584 247.966191,224.135782 L252.761064,214.546036 C253.498112,213.071938 255.601724,213.071938 256.338773,214.546036 Z" id="little-fat-triangle" fill="#FF546B" fill-rule="nonzero" transform="translate(254.549918, 220.235336) rotate(-330.000000) translate(-254.549918, -220.235336) "></path>
                <circle id="little-filled-circle" fill="#822E40" cx="133.5" cy="141.5" r="4.5"></circle>
                <g id="lined-triangle" transform="translate(245.069935, 48.857304) rotate(-62.500000) translate(-245.069935, -48.857304) translate(225.069935, 28.357304)" fill="#B9203A" fill-rule="nonzero">
                    <path d="M20.107902,0.548158132 C20.3574473,0.0554659849 20.9591497,-0.141643421 21.4518419,0.107901953 C21.944534,0.357447326 22.1416434,0.959149721 21.892098,1.45184187 L2.39209805,39.9518419 C2.14255267,40.444534 1.54085028,40.6416434 1.04815813,40.392098 C0.555465985,40.1425527 0.358356579,39.5408503 0.607901953,39.0481581 L20.107902,0.548158132 Z" id="line"></path>
                    <path d="M22.107902,4.54815813 C22.3574473,4.05546598 22.9591497,3.85835658 23.4518419,4.10790195 C23.944534,4.35744733 24.1416434,4.95914972 23.892098,5.45184187 L6.46907561,39.8511426 C6.21953024,40.3438347 5.61782784,40.5409441 5.1251357,40.2913988 C4.63244355,40.0418534 4.43533414,39.440151 4.68487952,38.9474588 L22.107902,4.54815813 Z" id="line"></path>
                    <path d="M24.107902,8.54815813 C24.3574473,8.05546598 24.9591497,7.85835658 25.4518419,8.10790195 C25.944534,8.35744733 26.1416434,8.95914972 25.892098,9.45184187 L10.4571798,39.9259112 C10.2076345,40.4186033 9.60593206,40.6157127 9.11323992,40.3661673 C8.62054777,40.116622 8.42343836,39.5149196 8.67298374,39.0222274 L24.107902,8.54815813 Z" id="line"></path>
                    <path d="M26.107902,12.5481581 C26.3574473,12.055466 26.9591497,11.8583566 27.4518419,12.107902 C27.944534,12.3574473 28.1416434,12.9591497 27.892098,13.4518419 L14.5356524,39.8222601 C14.2861071,40.3149523 13.6844047,40.5120617 13.1917125,40.2625163 C12.6990204,40.012971 12.501911,39.4112686 12.7514563,38.9185764 L26.107902,12.5481581 Z" id="line"></path>
                    <path d="M28.107902,16.5481581 C28.3574473,16.055466 28.9591497,15.8583566 29.4518419,16.107902 C29.944534,16.3574473 30.1416434,16.9591497 29.892098,17.4518419 L18.5237566,39.8970287 C18.2742113,40.3897209 17.6725089,40.5868303 17.1798167,40.3372849 C16.6871246,40.0877395 16.4900152,39.4860372 16.7395605,38.993345 L28.107902,16.5481581 Z" id="line"></path>
                    <path d="M30.107902,20.5481581 C30.3574473,20.055466 30.9591497,19.8583566 31.4518419,20.107902 C31.944534,20.3574473 32.1416434,20.9591497 31.892098,21.4518419 L22.6022292,39.7933777 C22.3526839,40.2860699 21.7509815,40.4831793 21.2582893,40.2336339 C20.7655972,39.9840885 20.5684878,39.3823861 20.8180331,38.889694 L30.107902,20.5481581 Z" id="line"></path>
                    <path d="M32.107902,24.5481581 C32.3574473,24.055466 32.9591497,23.8583566 33.4518419,24.107902 C33.944534,24.3574473 34.1416434,24.9591497 33.892098,25.4518419 L26.5903335,39.8681463 C26.3407881,40.3608385 25.7390857,40.5579479 25.2463935,40.3084025 C24.7537014,40.0588571 24.556592,39.4571547 24.8061374,38.9644626 L32.107902,24.5481581 Z" id="line"></path>
                    <path d="M34.107902,28.5481581 C34.3574473,28.055466 34.9591497,27.8583566 35.4518419,28.107902 C35.944534,28.3574473 36.1416434,28.9591497 35.892098,29.4518419 L30.6688061,39.7644953 C30.4192607,40.2571874 29.8175583,40.4542968 29.3248661,40.2047515 C28.832174,39.9552061 28.6350646,39.3535037 28.88461,38.8608116 L34.107902,28.5481581 Z" id="line"></path>
                    <path d="M36.107902,32.5481581 C36.3574473,32.055466 36.9591497,31.8583566 37.4518419,32.107902 C37.944534,32.3574473 38.1416434,32.9591497 37.892098,33.4518419 L34.6569103,39.8392639 C34.4073649,40.331956 33.8056625,40.5290654 33.3129704,40.2795201 C32.8202782,40.0299747 32.6231688,39.4282723 32.8727142,38.9355802 L36.107902,32.5481581 Z" id="line"></path>
                    <path d="M38.107902,36.5481581 C38.3574473,36.055466 38.9591497,35.8583566 39.4518419,36.107902 C39.944534,36.3574473 40.1416434,36.9591497 39.892098,37.4518419 L38.7353829,39.7356129 C38.4858375,40.228305 37.8841351,40.4254144 37.3914429,40.175869 C36.8987508,39.9263237 36.7016414,39.3246213 36.9511868,38.8319291 L38.107902,36.5481581 Z" id="line"></path>
                </g>
                <path d="M373.091623,19.908377 L374.243453,21.1265782 L411.687238,58.5659181 C412.273025,59.1517045 412.273025,60.101452 411.687238,60.6872384 C411.101452,61.2730249 410.151705,61.2730249 409.565918,60.6872384 L373.111231,24.232551 L373.091623,19.908377 Z" id="diagonal-line" fill="#B9203A" fill-rule="nonzero" transform="translate(392.609101, 40.517478) rotate(-270.000000) translate(-392.609101, -40.517478) "></path>
                <g id="diagonal-line" transform="translate(410.500000, 341.031830) rotate(-270.000000) translate(-410.500000, -341.031830) translate(408.500000, 338.531830)" fill="#B9203A" fill-rule="nonzero">
                    <path d="M0.439339828,2.56066017 C-0.146446609,1.97487373 -0.146446609,1.02512627 0.439339828,0.439339828 C1.02512627,-0.146446609 1.97487373,-0.146446609 2.56066017,0.439339828 L3.68566017,1.56433983 L2.56433983,4.68566017 L0.439339828,2.56066017 Z"></path>
                </g>
            </g>
        </g>
    </g>
</svg>